<?xml version="1.0" standalone="no"?>
<!DOCTYPE svg PUBLIC "-//W3C//DTD SVG 20010904//EN"
 "http://www.w3.org/TR/2001/REC-SVG-20010904/DTD/svg10.dtd">
<svg version="1.0" xmlns="http://www.w3.org/2000/svg"
 width="260.000000pt" height="260.000000pt" viewBox="0 0 260.000000 260.000000"
 preserveAspectRatio="xMidYMid meet">
<metadata>
Created by potrace 1.14, written by Peter Selinger 2001-2017
</metadata>
<g transform="translate(0.000000,260.000000) scale(0.100000,-0.100000)"
fill="#000000" stroke="none">
<path d="M0 1300 l0 -1300 1300 0 1300 0 0 1300 0 1300 -1300 0 -1300 0 0
-1300z m750 994 c0 -17 49 -54 71 -54 31 0 22 -17 -18 -37 -23 -11 -44 -31
-53 -50 -16 -35 -33 -38 -38 -7 -5 26 -40 62 -65 66 -27 4 -35 28 -9 28 30 0
70 37 77 72 7 30 8 31 21 13 8 -10 14 -24 14 -31z m691 -166 c99 -95 184 -174
189 -176 6 -2 10 20 10 52 0 53 -1 56 -25 56 -24 0 -25 2 -25 75 l0 75 215 0
216 0 -3 -72 c-3 -67 -5 -73 -25 -76 l-23 -3 0 -212 0 -212 150 -150 150 -150
-59 -59 -60 -60 -153 149 c-84 82 -282 275 -441 430 -158 154 -291 281 -297
283 -5 2 -128 -114 -273 -257 l-264 -261 -118 0 c-109 0 -116 1 -104 17 16 20
752 723 757 723 2 0 84 -78 183 -172z m-881 17 c13 -60 31 -78 104 -105 34
-12 27 -23 -25 -39 -45 -14 -64 -35 -81 -86 -16 -49 -30 -49 -43 -2 -13 47
-51 85 -92 93 -43 8 -42 30 1 38 42 8 83 53 92 102 8 43 35 43 44 -1z m775
-267 c71 -84 74 -202 6 -262 l-21 -19 6 30 c8 39 -17 88 -56 108 -34 18 -34
19 -18 80 10 38 10 50 -5 80 -9 20 -17 40 -17 46 0 17 76 -29 105 -63z m-152
-120 c-14 -42 -7 -78 22 -108 23 -25 26 -32 15 -45 -18 -22 -47 -18 -75 10
-35 34 -34 93 1 134 31 37 49 41 37 9z m329 -55 c63 -66 86 -135 69 -201 -20
-72 -84 -128 -117 -101 -11 9 -8 18 16 47 16 21 32 51 35 67 l6 30 -23 -26
c-24 -27 -58 -49 -78 -49 -25 0 -21 31 8 55 51 42 64 111 37 193 -11 32 6 27
47 -15z m-170 -265 l3 -103 230 -5 229 -5 -99 -108 c-54 -59 -105 -116 -112
-127 -9 -12 -26 -20 -44 -20 -83 0 -132 -95 -95 -183 17 -41 96 -112 142 -127
30 -10 34 -16 34 -46 l0 -34 -109 0 c-104 0 -109 1 -124 24 -22 33 -95 66
-146 66 -48 0 -105 -26 -140 -64 -23 -25 -29 -26 -128 -26 l-104 0 3 32 c2 26
11 36 48 55 60 31 116 91 131 141 10 35 9 45 -7 78 -11 21 -30 46 -44 56 -14
10 -97 34 -185 54 -88 19 -178 43 -201 53 -40 18 -144 113 -144 131 0 6 38 10
85 10 78 0 85 2 85 20 0 19 7 20 220 20 189 0 220 2 220 15 0 13 -38 15 -282
15 -156 0 -300 -5 -322 -9 -23 -6 -51 -23 -71 -45 -42 -46 -81 -48 -127 -7
-32 28 -33 32 -33 104 0 48 5 80 14 90 12 15 54 17 417 17 352 0 404 2 404 15
0 13 21 15 125 15 l124 0 3 -102z m688 -600 l0 -368 -307 2 -308 3 -3 72 -3
73 228 2 228 3 3 370 2 369 80 -79 80 -80 0 -367z m-1491 243 c20 -15 55 -38
79 -50 l42 -21 0 -195 0 -195 225 0 225 0 0 -75 0 -75 -310 0 -310 0 0 320 c0
176 3 320 6 320 3 0 23 -13 43 -29z"/>
<path d="M1122 1438 c4 -74 28 -77 28 -4 0 44 -3 56 -16 56 -12 0 -14 -10 -12
-52z"/>
<path d="M687 1462 l-378 -2 3 -57 c4 -76 25 -90 70 -46 56 54 69 56 385 61
286 4 291 4 297 25 3 12 4 21 3 22 -1 0 -172 -1 -380 -3z"/>
<path d="M702 1238 c2 -35 7 -43 23 -43 15 0 19 6 18 22 -2 16 4 24 20 28 12
3 119 4 237 3 212 -3 215 -3 225 -25 9 -22 14 -23 161 -23 l150 0 54 40 54 40
-473 0 -472 0 3 -42z"/>
</g>
</svg>
